<svg xmlns="http://www.w3.org/2000/svg" viewBox="0 0 524.96 121.44"><defs><style>.d{fill:#fff}.e{fill:#7f92ff}.f{fill:#00f}.g{fill:#00d2ff}.h{fill:#5e1ad5}</style></defs> <g id="a"></g> <g id="b"><g id="c"><g><g><path d="M168.84,35.13h8.23s.07,0,.11,0h.04c1.74-.02,3.32-.43,4.75-1.26,1.45,.83,3.04,1.24,4.75,1.26h.04s.07,0,.1,0h.05s.07,0,.11,0h.03c1.74-.02,3.32-.43,4.75-1.26,1.49,.85,3.13,1.26,4.9,1.26h16.48c1.79,0,3.43-.41,4.9-1.26,1.45,.83,3.04,1.24,4.75,1.26h.04s.07,0,.1,0h.07c.08,0,.14,0,.19-.01,2.43-.06,4.72-1.04,6.06-2.38v-14.39h-2.74v13.22c-.92,.48-2.28,.74-3.56,.74s-2.62-.25-3.54-.74v-7.93h-2.74v7.93c-.99,.48-2.16,.74-3.56,.74h-4.71c1.54-1.22,2.32-2.76,2.32-4.58,0-3.15-2.39-5.27-5.82-5.27s-5.84,2.12-5.84,5.27c0,1.82,.78,3.36,2.32,4.58h-4.71c-1.31,0-2.62-.25-3.54-.74v-7.93h-2.74v7.93c-.99,.48-2.16,.74-3.56,.74-1.31,0-2.62-.25-3.54-.74v-7.93h-2.74v7.93c-.99,.48-2.16,.74-3.56,.74h-3.49v-7.63c-1.2-.67-3.1-1.26-5.04-1.26-3.77,0-6.28,2.28-6.28,5.86s2.62,5.86,6.6,5.86Zm36.12-10.05c1.82,0,3.08,1.17,3.08,2.99,0,.9-.32,1.7-.94,2.37-.62,.67-1.33,1.15-2.14,1.49-.83-.32-1.56-.83-2.18-1.49-.62-.67-.92-1.47-.92-2.37,0-1.77,1.29-2.99,3.1-2.99Zm-36.65,.9c.94,0,1.79,.18,2.51,.58v5.75h-2.37c-2.12,0-3.5-1.1-3.5-3.13s1.43-3.2,3.36-3.2Z" class="d"></path> <path d="M166.31,21.4c.9,0,1.63-.74,1.63-1.66s-.74-1.66-1.63-1.66c-.94,0-1.68,.74-1.68,1.66s.74,1.66,1.68,1.66Z" class="d"></path> <path d="M170.8,21.4c.92,0,1.66-.74,1.66-1.66s-.74-1.66-1.66-1.66-1.63,.74-1.63,1.66,.71,1.66,1.63,1.66Z" class="d"></path> <path d="M182.64,38.46c0,.9,.71,1.63,1.63,1.63s1.66-.74,1.66-1.63c0-.94-.74-1.66-1.66-1.66s-1.63,.71-1.63,1.66Z" class="d"></path> <path d="M179.79,40.1c.9,0,1.63-.74,1.63-1.63s-.71-1.66-1.63-1.66-1.68,.71-1.68,1.66,.74,1.63,1.68,1.63Z" class="d"></path> <path d="M191.86,21.56c.92,0,1.66-.74,1.66-1.66s-.74-1.68-1.66-1.68-1.68,.74-1.68,1.68,.74,1.66,1.68,1.66Z" class="d"></path> <path d="M202.71,20.46c.9,0,1.63-.74,1.63-1.66s-.74-1.66-1.63-1.66c-.94,0-1.68,.74-1.68,1.66s.74,1.66,1.68,1.66Z" class="d"></path> <path d="M207.19,20.46c.92,0,1.66-.74,1.66-1.66s-.74-1.66-1.66-1.66-1.63,.74-1.63,1.66,.71,1.66,1.63,1.66Z" class="d"></path> <path d="M215.9,21.56c.9,0,1.63-.74,1.63-1.66s-.74-1.66-1.63-1.66c-.94,0-1.68,.74-1.68,1.66s.74,1.66,1.68,1.66Z" class="d"></path> <path d="M220.39,21.56c.92,0,1.66-.74,1.66-1.66s-.74-1.66-1.66-1.66-1.63,.74-1.63,1.66,.71,1.66,1.63,1.66Z" class="d"></path> <rect x="233.95" y="18.35" width="2.74" height="16.78" class="d"></rect> <path d="M246.99,35.13h2c-.16,2.28-1.33,3.36-3.98,3.36-1.36,0-2.81-.3-3.7-.64l-.48,2.6c1.22,.44,2.74,.67,4.09,.67,4.21,0,6.81-2.09,6.81-6.78v-9.22c-1.68-.85-3.38-1.26-5.06-1.26-3.84,0-6.3,2.3-6.3,5.68s2.46,5.61,6.62,5.61Zm-.48-8.74c.85,0,1.68,.18,2.48,.58v5.33h-2.44c-2.05,0-3.47-1.08-3.47-2.94s1.43-2.97,3.43-2.97Z" class="d"></path> <path d="M270.8,32.3h-3.33c-1.54-.16-2.51-.9-2.51-2.46,0-1.4,.8-2.21,2.07-2.21,.62,0,1.17,.21,1.61,.6l1.84-1.72c-.85-.8-2.18-1.33-3.59-1.33-2.6,0-4.39,1.86-4.39,4.35,0,1.1,.32,2.02,.99,2.78h-2.23v2.83h9.54v-2.83Z" class="d"></path> <path d="M275.95,33.89c1.28,.72,3.06,1.21,5.02,1.24,.02,0,.04,0,.07,0,.03,0,.05,0,.08,0h39.89c2.51,0,4.9-1.01,6.28-2.39v-14.39h-2.74v13.22c-.92,.48-2.28,.74-3.56,.74h-4.71c1.54-1.22,2.32-2.76,2.32-4.58,0-3.15-2.39-5.27-5.82-5.27s-5.84,2.12-5.84,5.27c0,1.82,.78,3.36,2.32,4.58h-8.07v-3.08c0-2.05-.53-3.63-1.59-4.71-1.03-1.08-2.41-1.63-4.14-1.63-2.78,0-5.2,1.47-8.02,4.39v-2.76h-2.74v7.79h-3.56c-1.31,0-2.62-.25-3.56-.74v-13.22h-2.74v13.66c0,.99,.28,1.45,1.1,1.89Zm36.83-8.81c1.82,0,3.08,1.17,3.08,2.99,0,.9-.32,1.7-.94,2.37-.62,.67-1.33,1.15-2.14,1.49-.83-.32-1.56-.83-2.18-1.49-.62-.67-.92-1.47-.92-2.37,0-1.77,1.29-2.99,3.1-2.99Zm-25.33,5.54c3.01-3.49,5.27-5.08,7.59-5.08,1.22,0,2.09,.39,2.62,1.17,.55,.78,.83,1.77,.83,2.94v2.64h-11.04v-1.68Z" class="d"></path> <path d="M290.11,20.81c.92,0,1.66-.74,1.66-1.66s-.74-1.68-1.66-1.68-1.68,.74-1.68,1.68,.74,1.66,1.68,1.66Z" class="d"></path> <path d="M312.76,20.46c.92,0,1.66-.74,1.66-1.66s-.74-1.68-1.66-1.68-1.68,.74-1.68,1.68,.74,1.66,1.68,1.66Z" class="d"></path> <rect x="331.93" y="18.35" width="2.74" height="16.78" class="d"></rect> <path d="M344.97,35.13h2c-.16,2.28-1.33,3.36-3.98,3.36-1.36,0-2.8-.3-3.7-.64l-.48,2.6c1.22,.44,2.74,.67,4.09,.67,4.21,0,6.81-2.09,6.81-6.78v-9.22c-1.68-.85-3.38-1.26-5.06-1.26-3.84,0-6.3,2.3-6.3,5.68s2.46,5.61,6.62,5.61Zm-.48-8.74c.85,0,1.68,.18,2.48,.58v5.33h-2.44c-2.05,0-3.47-1.08-3.47-2.94s1.43-2.97,3.43-2.97Z" class="d"></path> <path d="M365.98,35.13h9.08c3.29,0,5.91-.58,7.45-1.4v-10.09h-2.74v8c-.83,.39-2.39,.67-4.32,.67h-9.29c-2.76,0-4.14-1.17-4.14-3.52,0-.78,.14-1.7,.44-2.74l-2.51-.46c-.44,1.43-.64,2.76-.64,4,0,4.02,2.44,5.54,6.67,5.54Z" class="d"></path> <path d="M373.2,24.39c.92,0,1.66-.74,1.66-1.66s-.74-1.66-1.66-1.66-1.63,.74-1.63,1.66,.71,1.66,1.63,1.66Z" class="d"></path> <path d="M368.72,24.39c.9,0,1.63-.74,1.63-1.66s-.74-1.66-1.63-1.66c-.94,0-1.68,.74-1.68,1.66s.74,1.66,1.68,1.66Z" class="d"></path> <path d="M399.13,32.74v-14.39h-2.74v13.08c-.8,.55-1.93,.85-3.38,.87l-2.58-11.01h-2.71l2.53,11.01h-4.41v2.83h7.06c2.51,0,4.85-1.01,6.23-2.39Z" class="d"></path> <path d="M404.88,33.89c1.28,.72,3.06,1.21,5.02,1.24,.02,0,.04,0,.07,0,.03,0,.05,0,.08,0h23.45s.04,0,.06,0c.03,0,.07,0,.1,0,1.16-.01,2.31-.17,3.38-.48,1.13-.32,2.05-.71,2.74-1.2v-9.82h-2.74v8.07c-.8,.37-2.16,.6-3.56,.6h-3.35v-3.08c0-2.05-.53-3.63-1.59-4.71-1.03-1.08-2.41-1.63-4.14-1.63-2.78,0-5.2,1.47-8.02,4.39v-2.76h-2.74v7.79h-3.56c-1.31,0-2.62-.25-3.56-.74v-13.22h-2.74v13.66c0,.99,.28,1.45,1.1,1.89Zm11.49-3.27c3.01-3.49,5.27-5.08,7.59-5.08,1.22,0,2.09,.39,2.62,1.17,.55,.78,.83,1.77,.83,2.94v2.64h-11.04v-1.68Z" class="d"></path> <path d="M436.1,21.56c.9,0,1.63-.74,1.63-1.66s-.74-1.66-1.63-1.66c-.94,0-1.68,.74-1.68,1.66s.74,1.66,1.68,1.66Z" class="d"></path> <path d="M440.58,21.56c.92,0,1.66-.74,1.66-1.66s-.74-1.66-1.66-1.66-1.63,.74-1.63,1.66,.71,1.66,1.63,1.66Z" class="d"></path> <path d="M456.4,32.74v-14.39h-2.74v13.08c-.8,.55-1.93,.85-3.38,.87l-2.58-11.01h-2.71l2.53,11.01h-4.41v2.83h7.06c2.51,0,4.85-1.01,6.23-2.39Z" class="d"></path> <rect x="461.04" y="18.35" width="2.74" height="16.78" class="d"></rect> <path d="M481.76,21.4c.92,0,1.66-.74,1.66-1.66s-.74-1.66-1.66-1.66-1.63,.74-1.63,1.66,.71,1.66,1.63,1.66Z" class="d"></path> <path d="M477.27,21.4c.9,0,1.63-.74,1.63-1.66s-.74-1.66-1.63-1.66c-.94,0-1.68,.74-1.68,1.66s.74,1.66,1.68,1.66Z" class="d"></path> <path d="M495.39,19.68h-1.33c-.99,0-1.45-.41-1.45-1.03,0-.48,.34-.87,.87-.87,.28,0,.53,.09,.74,.28l.99-1.06c-.44-.44-1.1-.78-1.91-.78-1.29,0-2.18,.92-2.18,2.09,0,.53,.18,.99,.53,1.38h-1.1v1.79h4.85v-1.79Z" class="d"></path> <path d="M502.22,38.46c0-.92-.71-1.66-1.63-1.66s-1.68,.71-1.68,1.66,.74,1.63,1.68,1.63,1.63-.74,1.63-1.63Z" class="d"></path> <path d="M505.07,36.81c-.92,0-1.63,.71-1.63,1.66s.71,1.63,1.63,1.63,1.66-.74,1.66-1.63c0-.94-.74-1.66-1.66-1.66Z" class="d"></path> <path d="M522.29,22.21c-1.77-1.54-4.09-2.32-6.99-2.32-.92,0-1.89,.07-2.87,.21v2.53c.92-.16,1.86-.25,2.81-.25,2.02,0,3.7,.55,5.01,1.63,1.31,1.08,1.98,2.85,1.98,5.31v3.01h-3.75c.85-.9,1.26-1.98,1.26-3.29,0-2.78-2.18-4.6-4.9-4.6s-4.85,1.77-4.85,4.6c0,1.31,.41,2.41,1.24,3.26h-3.54c-1.31,0-2.62-.25-3.54-.74v-7.93h-2.74v7.93c-.99,.48-2.16,.74-3.56,.74-1.31,0-2.62-.25-3.54-.74v-7.93h-2.74v7.93c-.99,.48-2.16,.74-3.56,.74h-3.49v-7.63c-1.2-.67-3.1-1.26-5.04-1.26-3.77,0-6.28,2.28-6.28,5.86s2.62,5.86,6.6,5.86h8.23s.07,0,.11,0h.04c1.74-.02,3.32-.43,4.75-1.26,1.45,.83,3.04,1.24,4.75,1.26h.04s.07,0,.1,0h.05s.07,0,.11,0h.04c1.74-.02,3.32-.43,4.75-1.26,1.45,.83,3.04,1.24,4.75,1.26h.04s.07,0,.1,0h17.29v-5.68c0-3.29-.9-5.7-2.67-7.24Zm-40.51,10.09h-2.37c-2.12,0-3.49-1.1-3.49-3.13s1.43-3.2,3.36-3.2c.94,0,1.79,.18,2.51,.58v5.75Zm33.06,0c-1.54-.21-2.37-1.33-2.37-2.92,0-1.49,1.01-2.48,2.37-2.48s2.37,.99,2.37,2.48c0,1.63-.8,2.71-2.37,2.92Z" class="d"></path> <path d="M170.67,56.41c1.64,0,3.17,.75,4.15,2.01l2.47-1.55c-1.53-2.01-3.97-3.24-6.64-3.24-4.52-.09-8.49,3.79-8.4,8.22-.09,4.43,3.88,8.31,8.4,8.22,2.67,0,5.11-1.23,6.64-3.24l-2.47-1.6c-1.03,1.28-2.51,2.05-4.15,2.05-2.99,0-5.3-2.44-5.3-5.43s2.31-5.43,5.3-5.43Z" class="d"></path> <path d="M188.5,58.19c-3.54,0-6.32,2.58-6.32,5.94s2.79,5.94,6.32,5.94c3.54,.07,6.44-2.63,6.37-5.94,.07-3.31-2.83-6-6.37-5.94Zm0,9.5c-2.03,0-3.58-1.55-3.58-3.56s1.55-3.56,3.58-3.56,3.63,1.55,3.63,3.56-1.55,3.56-3.63,3.56Z" class="d"></path> <path d="M214.82,60.45c1.46,0,2.35,.94,2.35,2.6v6.78h2.78v-7.58c0-2.63-1.67-4.06-4.06-4.06-1.76,0-3.24,.5-4.82,1.85-.64-1.21-1.89-1.85-3.42-1.85s-3.06,.59-4.43,1.78v-1.55h-2.79v11.41h2.79v-8.15c1.1-.89,2.03-1.23,3.22-1.23,1.46,0,2.37,.94,2.37,2.6v6.78h2.76v-6.55c0-.57-.05-1.12-.16-1.6,1-.82,2.15-1.23,3.4-1.23Z" class="d"></path> <path d="M241.32,58.19c-1.76,0-3.24,.5-4.82,1.85-.64-1.21-1.89-1.85-3.42-1.85s-3.06,.59-4.43,1.78v-1.55h-2.79v11.41h2.79v-8.15c1.1-.89,2.03-1.23,3.22-1.23,1.46,0,2.37,.94,2.37,2.6v6.78h2.76v-6.55c0-.57-.05-1.12-.16-1.6,1-.82,2.15-1.23,3.4-1.23,1.46,0,2.35,.94,2.35,2.6v6.78h2.79v-7.58c0-2.63-1.67-4.06-4.06-4.06Z" class="d"></path> <path d="M259.99,66.36c-1.03,.91-2.33,1.42-3.54,1.42-1.64,0-2.56-.94-2.56-2.58v-6.78h-2.76v7.58c0,2.53,1.57,4.06,4.15,4.06,1.64,0,3.31-.59,4.7-1.69v1.46h2.79v-11.41h-2.79v7.94Z" class="d"></path> <path d="M277.78,63.05v6.78h2.76v-7.58c0-2.53-1.57-4.06-4.15-4.06-1.62,0-3.31,.59-4.7,1.67v-1.44h-2.79v11.41h2.79v-7.94c1.03-.91,2.33-1.44,3.54-1.44,1.64,0,2.56,.96,2.56,2.6Z" class="d"></path> <rect x="286.68" y="58.42" width="2.76" height="11.41" class="d"></rect> <path d="M288.05,54.1c-.84,0-1.53,.62-1.53,1.42s.68,1.42,1.53,1.42,1.51-.62,1.51-1.42c0-.75-.69-1.42-1.51-1.42Z" class="d"></path> <path d="M301.4,67.69c-1.94,0-3.47-1.57-3.47-3.56s1.53-3.56,3.47-3.56c1.14,0,2.05,.39,2.76,1.19l2.12-1.19c-1.16-1.48-2.99-2.37-4.93-2.37-3.29-.07-6.21,2.72-6.14,5.94-.07,3.22,2.85,6,6.14,5.94,2.01,0,3.84-.91,5.02-2.47l-2.15-1.19c-.66,.82-1.64,1.28-2.83,1.28Z" class="d"></path> <path d="M317.47,58.19c-1.85,0-3.7,.5-5.27,1.48l.89,1.94c1.21-.8,2.47-1.21,3.74-1.21,1.8,0,2.74,.8,2.74,2.33v.14h-3.88c-2.74,0-4.45,1.35-4.45,3.56s1.64,3.63,4.27,3.63c1.53,0,2.88-.5,4.06-1.48v1.26h2.76v-7.37c0-2.72-1.76-4.27-4.86-4.27Zm2.1,8.88c-1,.64-2.08,.96-3.24,.96-1.48,0-2.35-.64-2.35-1.76s.89-1.76,2.42-1.76h3.17v2.56Z" class="d"></path> <path d="M335.46,67.3c-.55,.27-1.14,.41-1.76,.41-1.16,0-1.99-.71-1.99-2.05v-5.02h3.24v-2.21h-3.24v-3.17h-2.76v3.17h-1.8v2.21h1.8v5.46c0,2.53,1.62,3.97,3.88,3.97,1,0,2.01-.27,2.99-.8l-.37-1.96Z" class="d"></path> <rect x="341.28" y="58.42" width="2.76" height="11.41" class="d"></rect> <path d="M342.65,54.1c-.84,0-1.53,.62-1.53,1.42s.68,1.42,1.53,1.42,1.51-.62,1.51-1.42c0-.75-.69-1.42-1.51-1.42Z" class="d"></path> <path d="M362.51,64.12c.07-3.31-2.83-6-6.37-5.94-3.54,0-6.32,2.58-6.32,5.94s2.79,5.94,6.32,5.94c3.54,.07,6.44-2.63,6.37-5.94Zm-9.95,0c0-2.01,1.55-3.56,3.58-3.56s3.63,1.55,3.63,3.56-1.55,3.56-3.63,3.56-3.58-1.55-3.58-3.56Z" class="d"></path> <path d="M376.99,63.05v6.78h2.76v-7.58c0-2.53-1.57-4.06-4.15-4.06-1.62,0-3.31,.59-4.7,1.67v-1.44h-2.79v11.41h2.79v-7.94c1.03-.91,2.33-1.44,3.54-1.44,1.64,0,2.56,.96,2.56,2.6Z" class="d"></path> <path d="M391.19,63.12l-1.28-.34c-1.58-.43-1.96-.69-1.96-1.35,0-.84,.62-1.26,1.87-1.26s2.69,.41,3.81,1.07l.94-1.8c-1.28-.8-3.01-1.26-4.68-1.26-2.85,0-4.59,1.3-4.59,3.49,0,.82,.27,1.46,.82,1.94,.57,.48,1.55,.91,2.95,1.3l1.44,.39c1.44,.43,1.78,.68,1.78,1.35,0,.94-.68,1.42-2.08,1.42-1.48,0-3.1-.48-4.45-1.3l-.96,1.76c1.46,.98,3.38,1.53,5.32,1.53,3.01,0,4.77-1.32,4.77-3.61,0-1.71-1.03-2.6-3.7-3.33Z" class="d"></path> <path d="M400.29,73.07l2.17-3.68c.16-.25,.23-.52,.23-.78,0-.8-.71-1.44-1.55-1.44s-1.53,.64-1.53,1.44c0,.57,.32,1.05,.87,1.3l-1.03,2.76,.84,.39Z" class="d"></path> <path d="M424.45,60.52l-1.74-.48c-2.53-.69-2.99-1.05-2.99-1.89,0-1.3,1.16-1.94,2.88-1.94,1.62,0,3.72,.59,5.43,1.51l1.3-2.37c-1.8-1.07-4.2-1.71-6.51-1.71-1.87,0-3.4,.41-4.57,1.21-1.16,.8-1.76,1.96-1.76,3.52,.09,2.6,1.6,3.54,5.39,4.5l1.8,.46c2.28,.57,2.9,.89,2.9,1.99,0,1.48-1.28,2.17-3.22,2.17s-4.29-.64-6.19-1.76l-1.37,2.24c2.01,1.37,4.68,2.12,7.31,2.12,4.04,0,6.6-1.74,6.6-4.93-.09-2.76-1.73-3.63-5.27-4.61Z" class="d"></path> <path d="M441.91,58.19c-1.55,0-2.85,.57-3.74,1.55v-1.32h-2.79v15.87h2.79v-5.8c.89,.98,2.19,1.58,3.74,1.58,3.06,.07,5.57-2.67,5.5-5.94,.07-3.26-2.44-6-5.5-5.94Zm1.83,8.49c-.62,.66-1.42,1-2.4,1-1.37,0-2.51-.57-3.17-1.55v-4.02c.66-.98,1.8-1.55,3.17-1.55,.98,0,1.78,.34,2.4,1.03,.62,.66,.94,1.51,.94,2.53s-.32,1.87-.94,2.56Z" class="d"></path> <path d="M458.69,58.19c-1.85,0-3.7,.5-5.27,1.48l.89,1.94c1.21-.8,2.47-1.21,3.74-1.21,1.8,0,2.74,.8,2.74,2.33v.14h-3.88c-2.74,0-4.45,1.35-4.45,3.56s1.64,3.63,4.27,3.63c1.53,0,2.88-.5,4.06-1.48v1.26h2.76v-7.37c0-2.72-1.76-4.27-4.86-4.27Zm2.1,8.88c-1,.64-2.08,.96-3.24,.96-1.48,0-2.35-.64-2.35-1.76s.89-1.76,2.42-1.76h3.17v2.56Z" class="d"></path> <path d="M480.14,67.59l-2.15-1.19c-.66,.82-1.64,1.28-2.83,1.28-1.94,0-3.47-1.57-3.47-3.56s1.53-3.56,3.47-3.56c1.14,0,2.05,.39,2.76,1.19l2.12-1.19c-1.16-1.48-2.99-2.37-4.93-2.37-3.29-.07-6.21,2.72-6.14,5.94-.07,3.22,2.85,6,6.14,5.94,2.01,0,3.84-.91,5.02-2.47Z" class="d"></path> <path d="M494.3,66.66c-.84,.8-1.99,1.21-3.42,1.21-1.85,0-3.08-1.07-3.38-2.88h9.22v-.87c0-3.4-2.56-5.94-6-5.94s-6,2.63-6,5.91,2.58,5.96,6.07,5.96c1.92,0,3.7-.71,5.05-1.96l-1.53-1.44Zm-3.56-6.32c.94,0,1.74,.27,2.35,.84,.62,.55,.94,1.23,.94,2.08h-6.53c.25-1.83,1.44-2.92,3.24-2.92Z" class="d"></path> <path d="M522.92,61.98c-.48,1.12-1.03,2.08-1.67,2.92l-3.13-3.31c2.53-1.28,3.52-2.37,3.52-4.27,0-2.12-1.8-3.7-4.25-3.7-2.6,0-4.61,1.78-4.61,4.09,0,1.03,.41,1.89,1.42,3.01l.25,.27c-2.92,1.46-4.04,2.81-4.04,4.73,0,2.72,2.21,4.34,5.75,4.34,1.94,0,3.61-.53,5-1.6l1.44,1.6,1.96-1.67-1.64-1.74c.75-.98,1.42-2.24,2.03-3.77l-2.03-.91Zm-5.57-6.3c1.16,0,1.94,.66,1.94,1.69s-.46,1.62-2.67,2.65l-.39-.41c-.57-.62-1-1.44-1-2.1,0-1.03,.91-1.83,2.12-1.83Zm-1.1,12.1c-1.83,0-2.99-.87-2.99-2.31,0-1.03,.66-1.78,2.67-2.81l3.61,4c-1.03,.75-2.12,1.12-3.29,1.12Z" class="d"></path> <polygon points="162.24 87 167.4 87 167.4 100.47 170.38 100.47 170.38 87 175.53 87 175.53 84.38 162.24 84.38 162.24 87" class="d"></polygon> <path d="M184.62,88.75c-3.47,0-6.05,2.64-6.05,5.95s2.6,6,6.12,6c1.93,0,3.73-.71,5.08-1.98l-1.54-1.45c-.85,.8-2,1.22-3.45,1.22-1.86,0-3.1-1.08-3.4-2.9h9.29v-.87c0-3.43-2.58-5.98-6.05-5.98Zm-3.24,5.1c.25-1.84,1.45-2.94,3.26-2.94,.94,0,1.75,.28,2.37,.85,.62,.55,.94,1.24,.94,2.09h-6.58Z" class="d"></path> <path d="M201.93,98.31c-1.95,0-3.5-1.59-3.5-3.59s1.54-3.59,3.5-3.59c1.15,0,2.07,.39,2.78,1.2l2.14-1.2c-1.17-1.49-3.01-2.39-4.97-2.39-3.31-.07-6.25,2.74-6.18,5.98-.07,3.24,2.87,6.05,6.18,5.98,2.02,0,3.86-.92,5.06-2.48l-2.16-1.2c-.67,.83-1.66,1.29-2.85,1.29Z" class="d"></path> <path d="M220,88.75c-1.63,0-3.33,.6-4.74,1.68v-6.05h-2.81v16.09h2.81v-8c1.03-.92,2.34-1.45,3.56-1.45,1.66,0,2.57,.97,2.57,2.62v6.83h2.78v-7.63c0-2.55-1.59-4.09-4.18-4.09Z" class="d"></path> <path d="M237.7,88.75c-1.63,0-3.33,.6-4.74,1.68v-1.45h-2.81v11.5h2.81v-8c1.03-.92,2.34-1.45,3.56-1.45,1.66,0,2.57,.97,2.57,2.62v6.83h2.78v-7.63c0-2.55-1.59-4.09-4.18-4.09Z" class="d"></path> <path d="M253.72,88.75c-3.56,0-6.37,2.6-6.37,5.98s2.81,5.98,6.37,5.98c3.56,.07,6.48-2.64,6.41-5.98,.07-3.33-2.85-6.05-6.41-5.98Zm0,9.56c-2.05,0-3.61-1.56-3.61-3.59s1.56-3.59,3.61-3.59,3.66,1.56,3.66,3.59-1.56,3.59-3.66,3.59Z" class="d"></path> <rect x="265.77" y="84.38" width="2.81" height="16.09" class="d"></rect> <path d="M280.6,88.75c-3.56,0-6.37,2.6-6.37,5.98s2.81,5.98,6.37,5.98c3.56,.07,6.48-2.64,6.41-5.98,.07-3.33-2.85-6.05-6.41-5.98Zm0,9.56c-2.05,0-3.61-1.56-3.61-3.59s1.56-3.59,3.61-3.59,3.66,1.56,3.66,3.59-1.56,3.59-3.66,3.59Z" class="d"></path> <path d="M301.38,90.31c-.9-.99-2.21-1.56-3.77-1.56-3.1-.07-5.59,2.67-5.54,5.95-.07,3.29,2.46,6.02,5.54,5.95,1.56,0,2.87-.57,3.77-1.56v.51c0,2.32-1.43,3.45-3.56,3.45-1.66,0-3.15-.41-4.51-1.26l-.9,1.95c1.63,.99,3.56,1.49,5.79,1.49,1.77,0,3.22-.46,4.3-1.4,1.1-.94,1.66-2.35,1.66-4.23v-10.62h-2.78v1.33Zm0,6.41c-.67,.99-1.82,1.56-3.2,1.56-.99,0-1.79-.34-2.41-1.01-.62-.69-.94-1.54-.94-2.58,0-2.02,1.43-3.59,3.36-3.59,1.38,0,2.53,.57,3.2,1.56v4.05Z" class="d"></path> <path d="M315.52,97.46l-3.4-8.48h-2.94l5.1,11.86-.18,.37c-.71,1.31-1.38,1.84-2.46,1.84-.57,0-1.2-.14-1.89-.41l-.8,1.93c1.13,.41,2.16,.62,3.06,.62,2.12,0,3.56-1.13,4.55-3.59l5.08-12.62h-2.9l-3.22,8.48Z" class="d"></path> <path d="M343.36,86.95c1.66,0,3.2,.76,4.18,2.02l2.48-1.56c-1.54-2.02-4-3.26-6.69-3.26-4.55-.09-8.55,3.82-8.46,8.28-.09,4.46,3.91,8.37,8.46,8.28,2.69,0,5.15-1.24,6.69-3.27l-2.48-1.61c-1.03,1.29-2.53,2.07-4.18,2.07-3.01,0-5.33-2.46-5.33-5.47s2.32-5.47,5.33-5.47Z" class="d"></path> <path d="M361.31,88.75c-3.56,0-6.37,2.6-6.37,5.98s2.81,5.98,6.37,5.98c3.56,.07,6.48-2.64,6.41-5.98,.07-3.33-2.85-6.05-6.41-5.98Zm0,9.56c-2.05,0-3.61-1.56-3.61-3.59s1.56-3.59,3.61-3.59,3.66,1.56,3.66,3.59-1.56,3.59-3.66,3.59Z" class="d"></path> <path d="M388.9,88.75c-1.77,0-3.27,.51-4.85,1.86-.64-1.22-1.91-1.86-3.45-1.86s-3.08,.6-4.46,1.79v-1.56h-2.81v11.5h2.81v-8.21c1.1-.9,2.05-1.24,3.24-1.24,1.47,0,2.39,.94,2.39,2.62v6.83h2.78v-6.6c0-.57-.05-1.13-.16-1.61,1.01-.83,2.16-1.24,3.43-1.24,1.47,0,2.37,.94,2.37,2.62v6.83h2.81v-7.63c0-2.64-1.68-4.09-4.09-4.09Z" class="d"></path> <path d="M414.51,88.75c-1.77,0-3.26,.51-4.85,1.86-.64-1.22-1.91-1.86-3.45-1.86s-3.08,.6-4.46,1.79v-1.56h-2.81v11.5h2.81v-8.21c1.1-.9,2.05-1.24,3.24-1.24,1.47,0,2.39,.94,2.39,2.62v6.83h2.78v-6.6c0-.57-.05-1.13-.16-1.61,1.01-.83,2.16-1.24,3.43-1.24,1.47,0,2.37,.94,2.37,2.62v6.83h2.8v-7.63c0-2.64-1.68-4.09-4.09-4.09Z" class="d"></path> <rect x="424.79" y="88.98" width="2.78" height="11.5" class="d"></rect> <path d="M426.17,84.63c-.85,0-1.54,.62-1.54,1.43s.69,1.43,1.54,1.43,1.52-.62,1.52-1.43c0-.76-.69-1.43-1.52-1.43Z" class="d"></path> <path d="M439.43,93.71l-1.29-.34c-1.59-.44-1.98-.69-1.98-1.36,0-.85,.62-1.26,1.89-1.26s2.71,.41,3.84,1.08l.94-1.82c-1.29-.8-3.03-1.26-4.71-1.26-2.87,0-4.62,1.31-4.62,3.52,0,.83,.28,1.47,.83,1.95,.57,.48,1.56,.92,2.97,1.31l1.45,.39c1.45,.44,1.79,.69,1.79,1.36,0,.94-.69,1.43-2.09,1.43-1.49,0-3.13-.48-4.48-1.31l-.97,1.77c1.47,.99,3.4,1.54,5.36,1.54,3.03,0,4.81-1.33,4.81-3.63,0-1.72-1.03-2.62-3.72-3.36Z" class="d"></path> <path d="M454.28,93.71l-1.29-.34c-1.59-.44-1.98-.69-1.98-1.36,0-.85,.62-1.26,1.89-1.26s2.71,.41,3.84,1.08l.94-1.82c-1.29-.8-3.03-1.26-4.71-1.26-2.87,0-4.62,1.31-4.62,3.52,0,.83,.28,1.47,.83,1.95,.57,.48,1.56,.92,2.97,1.31l1.45,.39c1.45,.44,1.79,.69,1.79,1.36,0,.94-.69,1.43-2.09,1.43-1.49,0-3.13-.48-4.48-1.31l-.97,1.77c1.47,.99,3.4,1.54,5.36,1.54,3.03,0,4.81-1.33,4.81-3.63,0-1.72-1.03-2.62-3.72-3.36Z" class="d"></path> <path d="M465.18,84.63c-.85,0-1.54,.62-1.54,1.43s.69,1.43,1.54,1.43,1.52-.62,1.52-1.43c0-.76-.69-1.43-1.52-1.43Z" class="d"></path> <rect x="463.8" y="88.98" width="2.78" height="11.5" class="d"></rect> <path d="M478.77,88.75c-3.56,0-6.37,2.6-6.37,5.98s2.81,5.98,6.37,5.98c3.56,.07,6.48-2.64,6.41-5.98,.07-3.33-2.85-6.05-6.41-5.98Zm0,9.56c-2.05,0-3.61-1.56-3.61-3.59s1.56-3.59,3.61-3.59,3.66,1.56,3.66,3.59-1.56,3.59-3.66,3.59Z" class="d"></path> <path d="M498.36,88.75c-1.63,0-3.33,.6-4.74,1.68v-1.45h-2.81v11.5h2.81v-8c1.03-.92,2.34-1.45,3.56-1.45,1.66,0,2.57,.97,2.57,2.62v6.83h2.78v-7.63c0-2.55-1.59-4.09-4.18-4.09Z" class="d"></path></g> <rect x="136.62" width="1.62" height="121.44" class="d"></rect> <g><path d="M49.9,66.45c-1.47,1.47-3.5,2.38-5.74,2.38-4.48,0-8.12-3.64-8.12-8.12s3.64-8.12,8.12-8.12c2.24,0,4.27,.91,5.74,2.38l5.74-5.74c-2.94-2.94-7-4.76-11.48-4.76-8.97,0-16.24,7.27-16.24,16.24s7.27,16.24,16.24,16.24c4.49,0,8.55-1.82,11.48-4.76l-5.74-5.74Z" class="d"></path> <polygon points="112.61 44.61 89.07 44.61 89.07 52.73 101.44 52.73 96.78 55.39 96.78 76.9 104.9 76.9 104.9 52.73 112.61 52.73 112.61 44.61" class="d"></polygon> <g><path d="M6.07,40.95l-.55-.25c-.13,.26-.25,.51-.37,.77l.51,.26c.14-.26,.28-.52,.42-.77Z" class="g"></path><path d="M5.83,33.51l-.84-.55c-.13,.19-.25,.38-.38,.57l.79,.54c.14-.19,.28-.37,.42-.56Z" class="g"></path><path d="M44.4,12.03c-7.16,0-13.95,1.55-20.07,4.33l3.69,7.21c5.01-2.22,10.55-3.46,16.38-3.46,4.92,0,9.64,.88,14,2.49l2.8-7.59c-5.23-1.93-10.89-2.99-16.8-2.99Z" class="g"></path></g> <g><path d="M52.76,100.27c-2.85,.63-5.81,.97-8.85,.97-7.85,0-15.18-2.21-21.41-6.05l-4.28,6.96c7.47,4.61,16.27,7.26,25.69,7.26,3.81,0,7.51-.44,11.07-1.26l-2.22-7.88Z" class="e"></path></g> <g><path d="M57.26,81.63c-3.91,2.48-8.57,3.87-13.54,3.75-1.5-.03-2.96-.21-4.38-.5l-1.74,7.9c1.92,.4,3.9,.64,5.94,.69,6.63,.15,12.84-1.7,18.05-5l-4.33-6.84Z" class="h"></path></g> <g><path d="M20.48,38.18c-5.68,5.83-9.18,13.79-9.18,22.57h8.09c0-6.56,2.6-12.51,6.83-16.87l-5.74-5.7Z" class="f"></path></g> <path d="M74.09,57.36c-3.19-.73-5.94-1.36-5.94-3.09,0-2.37,3.12-2.72,4.98-2.72,1.98,0,4.01,.44,6.01,1.31l.16,.07,5.19-5.19-.57-.37c-2.77-1.75-6.69-2.75-10.75-2.75-8.07,0-13.29,3.93-13.29,10,0,7.04,6.32,8.51,11.42,9.7,3.19,.74,5.95,1.38,5.95,3.15,0,2.18-3.17,2.51-5.07,2.51-2.67,0-5.55-.74-7.91-2.02l-.17-.09-5.06,5.06,.5,.39c2.82,2.19,7.76,3.6,12.59,3.6,9.87,0,13.37-5.36,13.37-9.95,0-6.97-6.33-8.42-11.43-9.59Z" class="d"></path></g></g></g></g></svg>
