<?xml version="1.0" encoding="utf-8"?>
<!-- Generator: Adobe Illustrator 25.4.1, SVG Export Plug-In . SVG Version: 6.00 Build 0)  -->
<svg version="1.1" id="Layer_1" xmlns="http://www.w3.org/2000/svg" xmlns:xlink="http://www.w3.org/1999/xlink" x="0px" y="0px"
	 viewBox="0 0 1000 1000" style="enable-background:new 0 0 1000 1000;" xml:space="preserve">
<style type="text/css">
	.st0{fill:#5B559B;}
	.st1{fill:#FFFFFF;}
</style>
<rect class="st0" width="1000" height="1000"/>
<g id="Symbols">
	<g id="sadaia">
		<path id="Path_55_" class="st1" d="M158.12,672.25c-1.43-1.43-2.85-2.14-4.99-2.14c-2.14-0.71-3.56-1.43-5.7-1.43l-5.7-1.43
			c-1.43,0-3.56-0.71-4.99-1.43c-1.43-0.71-2.85-1.43-3.56-2.14c-0.71-1.43-1.43-2.85-1.43-3.56c0-1.43,0-2.85,0.71-3.56
			c0.71-0.71,1.43-2.14,2.14-2.85c0.71-0.71,2.14-1.43,3.56-1.43s2.85-0.71,4.28-0.71c2.85,0,5.7,0.71,7.84,2.14
			c2.14,2.14,3.56,4.28,3.56,7.13h5.7c0-2.14-0.71-4.28-1.43-6.42c-0.71-2.14-2.14-3.56-3.56-4.99c-1.43-1.43-3.56-2.14-5.7-2.85
			c-1.43,0-3.56,0-5.7,0c-2.14,0-4.28,0-6.42,0.71c-2.14,0.71-3.56,1.43-5.7,2.85c-3.56,2.14-5.7,6.42-5.7,10.69
			c0,2.14,0.71,3.56,1.43,5.7c0.71,1.43,2.14,2.85,3.56,3.56s2.85,1.43,4.99,2.14c2.14,0.71,3.56,0.71,5.7,1.43l5.7,1.43
			c1.43,0,3.56,0.71,4.99,1.43c1.43,0.71,2.14,1.43,3.56,2.85c0.71,1.43,1.43,2.85,1.43,4.28c0,1.43,0,2.85-1.43,4.28
			c-0.71,0-2.14,0.71-2.85,1.43c-1.43,0.71-2.85,1.43-4.28,1.43c-1.43,0-2.85,0.71-4.28,0.71c-1.43,0-3.56,0-4.99-0.71
			c-1.43-0.71-2.85-1.43-4.28-2.14s-2.14-2.14-2.85-3.56c-0.71-1.43-1.43-3.56-1.43-4.99h-6.42c0,2.85,0.71,4.99,1.43,7.13
			c0.71,2.14,2.14,3.56,4.28,4.99c2.14,1.43,4.28,2.14,6.42,2.85c2.85,1.43,4.99,1.43,7.84,1.43c2.14,0,4.28,0,6.42-0.71
			c2.14-0.71,4.28-1.43,5.7-2.85c1.43-1.43,3.56-2.85,4.28-4.28c1.43-2.14,2.14-4.28,1.43-6.42c0-2.14-0.71-4.28-1.43-5.7
			C160.26,674.38,159.55,673.67,158.12,672.25L158.12,672.25z"/>
		<path id="Shape" class="st1" d="M196.62,690.07c0-0.71,0-2.14,0-2.85v-17.82c0-1.43,0-3.56-1.43-4.99
			c-0.71-1.43-1.43-2.14-2.85-2.85c-1.43-0.71-2.85-1.43-4.28-1.43c-1.43,0-2.85,0-4.99,0c-2.14,0-3.56,0-5.7,0.71
			c-1.43,0.71-3.56,0.71-4.28,2.14c-1.43,0.71-2.14,2.14-2.85,3.56s-1.43,3.56-1.43,5.7h5.7c0-2.14,0.71-4.28,2.85-4.99
			c2.14-0.71,3.56-1.43,5.7-1.43c0.71,0,2.14,0,2.85,0s1.43,0.71,2.85,0.71c0.71,0.71,1.43,0.71,2.14,2.14
			c0.71,0.71,0.71,2.14,0.71,2.85c0,0.71,0,1.43-0.71,2.14c-0.71,0.71-1.43,0.71-2.85,1.43c-1.43,0-2.85,0-4.28,0
			s-2.85,0.71-4.28,0.71c-1.43,0-2.85,0.71-4.28,0.71c-1.43,0.71-2.85,0.71-3.56,2.14c-1.43,0.71-2.14,2.14-2.85,2.85
			c-0.71,1.43-1.43,2.85-0.71,4.99c0,1.43,0,2.85,0.71,4.28c0.71,1.43,1.43,2.14,2.14,2.85c0.71,0.71,2.14,1.43,3.56,1.43
			c1.43,0,2.85,0.71,4.28,0.71c2.14,0,4.28-0.71,6.42-1.43c2.14-0.71,4.28-2.14,5.7-4.28c0,1.43,0.71,2.85,1.43,4.28
			c0.71,0.71,2.14,1.43,3.56,1.43s2.85,0,4.28-0.71v-4.28c-0.71,0-1.43,0-1.43,0C197.34,691.5,196.62,690.78,196.62,690.07z
			 M190.92,683.65c0,0.71,0,1.43-0.71,2.85c-0.71,0.71-0.71,2.14-2.14,2.85c-0.71,0.71-2.14,1.43-3.56,2.14
			c-1.43,0.71-2.85,0.71-4.99,0.71c-0.71,0-1.43,0-2.85,0c-0.71,0-1.43-0.71-2.14-0.71c0-2.14-0.71-3.56-0.71-4.99
			c0-0.71,0-2.14,0.71-2.85c0-0.71,0.71-1.43,1.43-1.43c0.71-0.71,1.43-0.71,2.14-1.43c0.71,0,1.43-0.71,2.85-0.71l2.85-0.71
			c0.71,0,2.14,0,2.85-0.71l2.85-0.71c0.71,0,1.43-0.71,2.14-0.71L190.92,683.65L190.92,683.65z"/>
		<path id="Path_56_" class="st1" d="M228,680.09c0,1.43,0,2.85-0.71,4.28c-0.71,1.43-0.71,2.14-2.14,3.56
			c-0.71,0.71-2.14,1.43-2.85,2.14c-1.43,0.71-2.85,0.71-4.28,0.71c-2.14,0-3.56-0.71-4.99-2.14s-2.14-2.85-2.14-4.99v-22.82h-5.7
			v22.82c0,1.43,0,3.56,0.71,4.99c0,1.43,0.71,2.85,2.14,4.28c0.71,1.43,2.14,2.14,3.56,2.85c2.14,0.71,3.56,0.71,5.7,0.71
			c2.14,0,4.28-0.71,6.42-1.43c2.14-1.43,3.56-2.85,4.99-4.99l0,0v5.7h5.7v-34.94h-5.7L228,680.09z"/>
		<path id="Shape_1_" class="st1" d="M267.92,665.12L267.92,665.12c-0.71-0.71-1.43-2.14-2.14-2.85c-0.71-0.71-2.14-1.43-2.85-1.43
			c-0.71-0.71-2.14-0.71-2.85-0.71c-0.71,0-2.14,0-2.85,0c-2.14,0-4.28,0.71-6.42,1.43c-2.14,0.71-3.56,2.14-4.99,3.56
			s-2.14,3.56-2.85,5.7c-0.71,2.14-0.71,4.28-0.71,6.42s0,4.28,0.71,6.42c0.71,2.14,1.43,4.28,2.85,5.7
			c1.43,1.43,2.85,2.85,4.99,4.28c2.14,0.71,4.28,1.43,7.13,1.43c2.14,0,4.28-0.71,6.42-1.43c2.14-0.71,3.56-2.14,4.28-4.28l0,0
			v4.99h5.7v-47.77h-5.7L267.92,665.12z M267.92,682.94c-0.71,1.43-0.71,2.85-2.14,4.28c-0.71,1.43-2.14,2.14-3.56,2.85
			c-1.43,0.71-2.85,1.43-4.99,1.43c-1.43,0-3.56,0-4.99-0.71c-1.43-0.71-2.14-1.43-3.56-2.85c-0.71-1.43-1.43-2.85-2.14-4.28
			c-0.71-1.43-0.71-2.85-0.71-4.99c0-1.43,0-3.56,0.71-4.99c0-1.43,0.71-2.85,1.43-4.28c0.71-1.43,2.14-2.14,2.85-2.85
			c1.43-0.71,3.56-1.43,4.99-1.43c1.43,0,3.56,0,4.99,1.43c1.43,0.71,2.85,1.43,3.56,2.85c0.71,1.43,1.43,2.85,2.14,4.28
			c0.71,1.43,0.71,3.56,0.71,4.99C267.92,679.37,267.92,681.51,267.92,682.94L267.92,682.94z"/>
		<rect id="Rectangle" x="282.89" y="660.84" class="st1" width="7.13" height="34.22"/>
		<path id="Shape_2_" class="st1" d="M332.8,647.29h-16.4v47.77h16.4c3.56,0,7.13-0.71,9.98-1.43c2.85-0.71,4.99-2.85,7.13-4.99
			c2.14-2.14,3.56-4.99,4.28-7.84c0.71-3.56,1.43-7.13,1.43-10.69c0.71-6.42-1.43-12.83-5.7-17.11
			C345.64,649.43,339.22,647.29,332.8,647.29z M348.49,678.66c-0.71,2.14-1.43,3.56-2.14,4.99c-0.71,1.43-2.14,2.14-2.85,3.56
			c-1.43,0.71-2.14,1.43-3.56,2.14c-1.43,0-2.85,0-3.56,0.71h-2.85h-10.69v-37.07h10.69c2.85,0,4.99,0.71,7.13,1.43
			c2.14,0.71,3.56,2.14,4.99,3.56c1.43,1.43,2.14,3.56,2.85,5.7c0.71,2.85,0.71,4.99,0.71,7.84
			C349.2,673.67,349.2,676.52,348.49,678.66L348.49,678.66z"/>
		<path id="Shape_3_" class="st1" d="M389.84,690.07c0-0.71,0-2.14,0-2.85v-17.82c0-1.43,0-3.56-1.43-4.99
			c-0.71-1.43-2.14-2.14-2.85-2.85c-1.43-0.71-2.85-1.43-4.28-1.43s-2.85,0-4.28,0c-2.14,0-3.56,0-5.7,0.71
			c-1.43,0.71-3.56,0.71-4.99,2.14c-1.43,0.71-2.14,2.14-3.56,3.56c-0.71,1.43-1.43,3.56-1.43,5.7h5.7c0-2.14,0.71-4.28,2.85-4.99
			c2.14-0.71,3.56-1.43,5.7-1.43h2.85c0.71,0,1.43,0.71,2.14,0.71c0.71,0.71,1.43,0.71,2.14,2.14c0.71,0.71,0.71,2.14,0.71,2.85
			c0,0.71,0,1.43-0.71,2.14c-0.71,0.71-1.43,0.71-2.85,1.43c-1.43,0-2.14,0.71-3.56,0.71s-2.85,0.71-4.28,0.71
			c-1.43,0-2.85,0.71-4.28,0.71c-1.43,0.71-2.85,0.71-3.56,2.14c-1.43,0.71-2.14,2.14-2.85,2.85c-0.71,1.43-1.43,2.85-0.71,4.99
			c0,1.43,0,2.85,0.71,4.28c0.71,1.43,1.43,2.14,2.14,2.85c1.43,0.71,2.14,1.43,3.56,1.43c1.43,0,2.85,0.71,4.28,0.71
			c2.14,0,4.28-0.71,6.42-1.43c2.14-0.71,4.28-2.14,5.7-4.28c0,1.43,0,2.85,1.43,4.28c0.71,0.71,2.14,1.43,3.56,1.43
			c1.43,0,2.85,0,4.28-0.71v-4.28c-0.71,0-1.43,0-1.43,0C390.55,691.5,390.55,690.78,389.84,690.07z M384.14,683.65
			c0,0.71,0,1.43-0.71,2.85c-0.71,0.71-1.43,2.14-2.14,2.85c-0.71,0.71-2.14,1.43-3.56,2.14c-1.43,0.71-2.85,0.71-4.99,0.71
			c-0.71,0-1.43,0-2.85,0c-0.71,0-1.43-0.71-2.14-0.71c-0.71-0.71-1.43-0.71-1.43-1.43c0.71-2.14,0.71-2.85,0.71-3.56
			c0-0.71,0-2.14,0.71-2.85c0.71-0.71,0.71-1.43,1.43-2.14c0.71-0.71,1.43-0.71,2.14-1.43c0.71,0,1.43-0.71,2.85-0.71l2.85-0.71
			c0.71,0,2.14,0,2.85-0.71l2.85-0.71c0.71,0,1.43-0.71,2.14-0.71v7.13C384.85,683.65,384.14,683.65,384.14,683.65z"/>
		<path id="Path_57_" class="st1" d="M406.95,650.14h-5.7v10.69h-5.7v4.99h5.7v22.1c0,1.43,0,2.85,0.71,3.56
			c0,0.71,0.71,1.43,1.43,2.14s1.43,0.71,2.85,0.71c1.43,0,2.85,0,3.56,0h4.28v-4.99h-2.85h-2.14c-0.71,0-0.71,0-1.43-0.71
			l-0.71-0.71c0-0.71,0-1.43,0-1.43v-21.39h6.42v-4.28h-6.42V650.14z"/>
		<path id="Shape_4_" class="st1" d="M446.88,690.07c0-0.71,0-2.14,0-2.85v-17.82c0-1.43,0-3.56-0.71-4.99
			c-0.71-1.43-2.14-2.14-2.85-2.85c-1.43-0.71-2.85-1.43-4.28-1.43s-2.85,0-4.99,0c-2.14,0-3.56,0-5.7,0.71
			c-1.43,0.71-3.56,0.71-4.28,2.14c-1.43,0.71-2.14,2.14-3.56,3.56c-0.71,1.43-1.43,3.56-1.43,5.7h5.7c0-2.14,0.71-4.28,2.85-4.99
			c2.14-0.71,3.56-1.43,5.7-1.43c0.71,0,2.14,0,2.85,0s1.43,0.71,2.14,0.71c0.71,0.71,1.43,0.71,2.14,2.14
			c0.71,0.71,0.71,2.14,0.71,2.85c0,0.71,0,2.14-0.71,2.14c-0.71,0.71-1.43,0.71-2.85,1.43c-1.43,0-2.14,0.71-3.56,0.71
			c-1.43,0-2.85,0.71-4.28,0.71c-1.43,0-2.85,0.71-4.28,0.71c-1.43,0.71-2.85,0.71-3.56,2.14c-1.43,0.71-2.14,2.14-2.85,2.85
			c-0.71,1.43-1.43,2.85-0.71,4.99c0,1.43,0,2.85,0.71,4.28c0.71,1.43,1.43,2.14,2.14,2.85c1.43,0.71,2.14,1.43,3.56,1.43
			c1.43,0,2.85,0.71,4.28,0.71c2.14,0,4.28-0.71,6.42-1.43c2.14-0.71,4.28-2.14,5.7-4.28c0,1.43,0.71,2.85,1.43,4.28
			c0.71,0.71,2.14,1.43,3.56,1.43c1.43,0,2.85,0,4.28-0.71v-4.28c-0.71,0-1.43,0-1.43,0C447.59,691.5,447.59,690.78,446.88,690.07z
			 M441.17,683.65c0,0.71,0,1.43-0.71,2.85c-0.71,0.71-0.71,2.14-2.14,2.85c-0.71,0.71-2.14,1.43-3.56,2.14s-2.85,0.71-4.99,0.71
			c-0.71,0-1.43,0-2.85,0c-0.71,0-1.43-0.71-2.14-0.71c-0.71-0.71-1.43-0.71-1.43-1.43c0.71-2.14,0.71-2.85,0.71-3.56
			c0-0.71,0-2.14,0.71-2.85c0-0.71,0.71-1.43,1.43-2.14c0.71-0.71,1.43-0.71,2.14-1.43c0.71,0,1.43-0.71,2.85-0.71l2.85-0.71
			c0.71,0,2.14,0,2.85-0.71l2.85-0.71c0.71,0,1.43-0.71,2.14-0.71v7.13C441.89,683.65,441.17,683.65,441.17,683.65z"/>
		<path id="Shape_5_" class="st1" d="M505.34,681.51c0.71-0.71,0.71-1.43,0.71-2.14c0-0.71,0.71-2.14,0.71-2.85
			c0-0.71,0-2.14,0.71-3.56h-5.7c0,2.85-0.71,4.99-1.43,7.13l-8.56-10.69c1.43-0.71,2.14-1.43,3.56-2.14
			c1.43-0.71,2.14-1.43,2.85-2.85c0.71-0.71,1.43-2.14,2.14-3.56c0.71-1.43,0.71-2.85,0.71-4.28c0-1.43,0-2.85-0.71-4.28
			c-0.71-1.43-1.43-2.14-2.85-2.85c-1.43-0.71-2.14-1.43-3.56-2.14c-1.43-0.71-2.85-0.71-4.28-0.71c-1.43,0-2.85,0-4.28,0.71
			c-1.43,0.71-2.14,1.43-3.56,2.14c-0.71,0.71-1.43,2.14-2.14,2.85c-0.71,2.14-0.71,4.28,0,6.42c0,0.71,0.71,2.14,1.43,2.85
			c0.71,0.71,0.71,1.43,1.43,2.85l2.14,2.85c-1.43,0.71-2.85,1.43-4.28,2.85c-1.43,0.71-2.85,2.14-3.56,2.85
			c-0.71,1.43-2.14,2.14-2.14,3.56c-0.71,1.43-0.71,3.56-0.71,4.99c0,1.43,0,2.14,0.71,3.56s1.43,2.85,2.14,4.28
			c1.43,1.43,2.85,2.85,4.28,3.56c2.14,1.43,4.99,1.43,7.84,1.43c1.43,0,2.85,0,4.28-0.71c1.43,0,2.85-0.71,3.56-1.43
			c1.43-0.71,2.14-1.43,3.56-2.14c0.71-0.71,2.14-2.14,2.85-2.85l4.99,5.7h7.13l-9.27-10.69
			C504.63,683.65,504.63,682.23,505.34,681.51z M485.38,653.71c1.43-0.71,2.14-1.43,3.56-1.43s2.85,0.71,4.28,1.43
			c0.71,0.71,1.43,2.14,1.43,3.56c0,0.71,0,2.14-0.71,2.85c-0.71,0.71-0.71,1.43-1.43,2.14c-0.71,0.71-1.43,1.43-2.14,2.14
			l-2.14,1.43l-1.43-2.14l-1.43-2.14c-0.71-0.71-0.71-1.43-1.43-2.14c0-0.71-0.71-1.43-0.71-2.14
			C483.95,655.85,483.95,654.42,485.38,653.71L485.38,653.71z M493.22,689.36c-2.14,0.71-3.56,1.43-5.7,1.43
			c-1.43,0-2.14,0-3.56-0.71c-1.43-0.71-2.14-0.71-2.85-1.43c-1.43-1.43-2.85-3.56-2.85-5.7c0-1.43,0-2.85,0.71-3.56
			c0.71-0.71,0.71-2.14,2.14-2.85c0.71-0.71,1.43-1.43,2.85-2.14c0.71-0.71,2.14-1.43,2.85-2.14l10.69,13.55
			C496.07,687.22,494.65,688.64,493.22,689.36z"/>
		<path id="Shape_6_" class="st1" d="M548.83,647.29l-18.54,47.77h6.42l5.7-14.26h19.96l4.99,14.26h6.42l-18.54-47.77H548.83z
			 M544.55,675.81l7.84-22.1l0,0l7.84,22.1H544.55z"/>
		<rect id="Rectangle_1_" x="579.49" y="647.29" class="st1" width="7.13" height="47.77"/>
		<path id="Shape_7_" class="st1" d="M627.97,647.29l-18.54,47.77h7.13l5.7-14.26h19.96l4.99,14.26h7.13l-18.54-47.77H627.97z
			 M623.69,675.81l7.84-22.1l0,0l8.56,22.1H623.69z"/>
		<path id="Path_58_" class="st1" d="M680.73,680.09c0,1.43,0,2.85-0.71,4.28c-0.71,1.43-0.71,2.14-2.14,3.56
			c-0.71,0.71-2.14,1.43-2.85,2.14c-1.43,0.71-2.85,0.71-4.28,0.71c-2.14,0-3.56-0.71-4.99-2.14c-1.43-1.43-2.14-2.85-2.14-4.99
			v-22.82h-5.7v22.82c0,1.43,0,3.56,0.71,4.99c0.71,1.43,0.71,2.85,2.14,4.28c0.71,1.43,2.14,2.14,3.56,2.85
			c2.14,0.71,3.56,0.71,5.7,0.71s4.28-0.71,6.42-1.43c2.14-1.43,3.56-2.85,4.99-4.99l0,0v5.7h5.7v-34.94h-6.42V680.09z"/>
		<path id="Path_59_" class="st1" d="M702.83,650.14h-5.7v10.69h-5.7v4.99h5.7v22.1c0,1.43,0,2.85,0.71,3.56
			c0,0.71,0.71,1.43,1.43,2.14s1.43,0.71,2.85,0.71s2.85,0,3.56,0h4.28v-4.99h-2.85h-2.14c-0.71,0-0.71,0-1.43-0.71l-0.71-0.71
			c0-0.71,0-1.43,0-1.43v-21.39h6.42v-4.28h-6.42V650.14z"/>
		<path id="Path_60_" class="st1" d="M742.05,663.69c-0.71-1.43-2.14-2.14-3.56-2.85c-2.14-0.71-3.56-0.71-5.7-0.71
			c-2.14,0-4.28,0.71-6.42,1.43c-0.71,0.71-2.14,1.43-2.85,2.14s-1.43,1.43-2.14,2.85l0,0V648h-4.99v47.77h5.7v-19.25
			c0-1.43,0-2.85,0.71-4.28c0.71-1.43,0.71-2.14,2.14-3.56c0.71-0.71,2.14-2.14,2.85-2.14c1.43-0.71,2.85-0.71,4.28-0.71
			c2.14,0,3.56,0.71,4.99,2.14c1.43,1.43,2.14,2.85,2.14,4.99v23.53h5.7v-22.82c0-1.43,0-3.56-0.71-4.99
			C743.47,665.83,742.76,664.4,742.05,663.69z"/>
		<path id="Shape_8_" class="st1" d="M780.55,665.12c-1.43-1.43-3.56-2.85-4.99-3.56c-2.14-0.71-4.99-1.43-7.13-1.43
			c-2.85,0-4.99,0.71-7.13,1.43c-2.14,0.71-3.56,2.14-4.99,3.56c-1.43,1.43-2.85,3.56-2.85,5.7c-0.71,2.14-1.43,4.99-0.71,7.13
			c0,2.14,0,4.99,0.71,7.13c0.71,2.14,1.43,4.28,2.85,5.7c1.43,1.43,2.85,2.85,4.99,3.56c2.14,0.71,4.99,1.43,7.13,1.43
			c2.14,0,4.99-0.71,7.13-1.43c2.14-0.71,3.56-2.14,4.99-3.56c1.43-1.43,2.85-3.56,2.85-5.7c0.71-2.14,1.43-4.99,1.43-7.13
			c0-2.14,0-4.99-1.43-7.13C782.69,668.68,781.97,666.54,780.55,665.12L780.55,665.12z M777.7,683.65
			c-0.71,1.43-1.43,2.85-2.14,4.28c-0.71,1.43-2.14,2.14-3.56,2.85c-2.85,1.43-5.7,1.43-8.56,0c-1.43-0.71-2.14-1.43-3.56-2.85
			c-0.71-1.43-2.14-2.85-2.14-4.28c-0.71-3.56-0.71-7.84,0-11.41c0.71-1.43,1.43-2.85,2.14-4.28c0.71-1.43,2.14-2.14,3.56-2.85
			c2.85-1.43,5.7-1.43,8.56,0c1.43,0.71,2.14,1.43,3.56,2.85c0.71,1.43,2.14,2.85,2.14,4.28
			C779.12,675.81,779.12,680.09,777.7,683.65L777.7,683.65z"/>
		<path id="Path_61_" class="st1" d="M796.95,667.97L796.95,667.97v-7.13h-5.7v34.94h5.7v-15.69c0-2.14,0-4.28,0.71-5.7
			c0.71-1.43,1.43-2.85,2.14-4.28c0.71-1.43,2.14-2.14,4.28-2.85c2.14-0.71,3.56-0.71,5.7-0.71v-5.7c-2.85,0-5.7,0.71-7.84,2.14
			C799.8,662.98,797.66,665.83,796.95,667.97L796.95,667.97z"/>
		<rect id="Rectangle_2_" x="814.06" y="660.84" class="st1" width="7.13" height="34.22"/>
		<path id="Path_62_" class="st1" d="M836.87,650.14h-5.7v10.69h-5.7v4.99h5.7v22.1c0,1.43,0,2.85,0.71,3.56
			c0,0.71,0.71,1.43,1.43,2.14c0.71,0.71,1.43,0.71,2.85,0.71c1.43,0,2.85,0,3.56,0H844v-4.99h-2.85h-2.14c-0.71,0-0.71,0-1.43-0.71
			l-0.71-0.71c0-0.71,0-1.43,0-1.43v-21.39h6.42v-4.28h-6.42L836.87,650.14z"/>
		<path id="Path_63_" class="st1" d="M872.52,660.84l-9.98,28.52l0,0l-9.98-28.52h-6.42l13.55,34.22l-2.14,5.7
			c-0.71,0.71-1.43,1.43-2.14,2.14s-2.14,0.71-2.85,0.71s-1.43,0-1.43,0l-1.43-0.71v4.99c0.71,0,1.43,0.71,2.14,0.71h2.14
			c1.43,0,2.14,0,3.56-0.71c0.71,0,2.14-0.71,2.85-1.43c0.71-0.71,1.43-2.14,2.14-2.85c0.71-1.43,1.43-2.85,2.14-4.28l14.97-39.21
			L872.52,660.84z"/>
		<polygon id="Path_64_" class="st1" points="287.88,647.29 282.89,647.29 282.89,654.42 287.88,650.86 		"/>
		<polygon id="Path_65_" class="st1" points="819.76,647.29 814.06,647.29 814.06,654.42 819.76,650.86 		"/>
		<path id="Path_66_" class="st1" d="M124.61,531.08c1.43,0.71,2.85,1.43,4.28,1.43c2.14,0.71,4.28,0.71,6.42,0.71h40.64v-25.67
			h-4.99v19.96h-32.8c-2.14,0-3.56,0-4.99,0c-1.43,0-2.14-0.71-3.56-0.71c-0.71-0.71-1.43-0.71-1.43-2.14
			c-0.71-0.71-0.71-2.14-0.71-3.56v-8.56h-5.7v10.69c0,1.43,0,2.85,0.71,4.28C123.19,529.65,123.9,530.36,124.61,531.08
			L124.61,531.08z"/>
		<path id="Path_67_" class="st1" d="M188.07,531.79c0.71,0.71,2.14,1.43,2.85,1.43c1.43,0,2.85,0.71,3.56,0.71h27.09v-25.67h-5.7
			v19.96h-21.39c-2.14,0-3.56-0.71-3.56-1.43c-0.71-1.43-0.71-2.85-0.71-4.28v-37.07h-4.99v38.5c0,1.43,0,2.85,0.71,4.28
			C186.64,529.65,187.36,531.08,188.07,531.79z"/>
		<path id="Path_68_" class="st1" d="M234.41,531.79c0.71,0.71,2.14,1.43,2.85,1.43c1.43,0,2.85,0.71,4.28,0.71h17.11
			c2.14,0,4.28,0,6.42-0.71c1.43-0.71,2.85-2.14,3.56-3.56c0,1.43,1.43,2.14,2.14,2.85c1.43,0.71,2.85,1.43,4.28,1.43h5.7
			c2.14,0,4.28,0,6.42-0.71c1.43-0.71,2.85-2.14,3.56-3.56c0.71,1.43,1.43,2.14,2.14,2.85c1.43,0.71,2.85,1.43,4.28,1.43h4.99
			c2.14,0,4.28,0,6.42-0.71c1.43-0.71,2.85-2.14,3.56-3.56c0,1.43,0.71,2.14,2.14,2.85s2.85,1.43,4.28,1.43h15.69v-47.77h-5.7v42.07
			h-10.69c-1.43,0-3.56-0.71-4.28-2.14c-0.71-1.43-1.43-3.56-1.43-5.7v-34.94h-5.7v37.07c0,0.71,0,1.43-0.71,2.85
			c-0.71,1.43-1.43,2.14-2.85,2.14h-2.14h-5.7c-0.71,0-2.14,0-2.85-0.71c-0.71-0.71-1.43-0.71-2.14-1.43s-0.71-1.43-0.71-2.14
			s0-2.14,0-2.85v-12.83h-5.7v14.97c0,0.71,0,1.43,0,2.85c0,0.71-0.71,1.43-1.43,1.43c-0.71,0-1.43,0.71-2.14,0.71h-2.85h-4.28
			c-0.71,0-2.14,0-2.85-0.71c-0.71-0.71-1.43-0.71-2.14-1.43c-0.71-0.71-0.71-1.43-0.71-2.14s0-2.14,0-2.85v-12.83h-5.7v14.97
			c0,0.71,0,1.43,0,2.85c0,0.71-0.71,1.43-1.43,1.43s-1.43,0.71-2.14,0.71h-2.85h-16.4c-2.14,0-3.56-0.71-3.56-1.43
			c-0.71-1.43-0.71-2.85-0.71-4.28v-37.07h-2.85v38.5c0,1.43,0,2.85,0.71,4.28C232.99,529.65,232.99,531.08,234.41,531.79
			L234.41,531.79z"/>
		<path id="Shape_9_" class="st1" d="M362.03,526.09c1.43,0.71,2.85,1.43,4.28,1.43c1.43,0,2.14,0.71,3.56,0.71
			c1.43,0,2.14,0,3.56,0c1.43,0,2.14-0.71,3.56-0.71c0,2.14,1.43,4.28,2.85,5.7c0.71,0.71,2.14,0.71,2.85,0.71c1.43,0,2.14,0,3.56,0
			h27.81v-25.67h-5.7v19.96h-22.1c-2.14,0-3.56-0.71-3.56-1.43c-0.71-1.43-0.71-2.85-0.71-4.28v-18.54H371.3
			c-1.43,0-3.56,0-4.99,0.71c-1.43,0.71-2.85,1.43-4.28,2.14c-1.43,1.43-2.14,2.14-3.56,4.28c-0.71,2.14-1.43,4.28-1.43,5.7
			c0,2.14,0.71,4.28,1.43,5.7C359.89,523.95,361.32,525.37,362.03,526.09z M365.6,511.11c1.43-1.43,3.56-1.43,5.7-1.43h5.7v12.12
			c-0.71,0-2.14,0.71-2.85,0.71s-2.14,0-2.85,0c-2.14,0-4.28-0.71-5.7-1.43c-1.43-1.43-2.14-2.85-2.14-4.99
			C362.75,513.25,364.17,511.83,365.6,511.11L365.6,511.11z"/>
		<path id="Path_69_" class="st1" d="M443.31,531.79c1.43-1.43,2.14-3.56,2.14-4.99c0-0.71,0-2.14-0.71-2.85
			c-0.71-1.43-1.43-2.85-2.14-3.56c-0.71-1.43-2.14-3.56-3.56-4.99c-1.43-2.14-2.85-4.99-4.99-7.84l-4.99,3.56l5.7,7.84
			c1.43,2.14,2.14,3.56,2.85,4.28c0.71,0.71,0.71,1.43,1.43,2.14c0,0.71,0,0.71,0,1.43s0,1.43-0.71,1.43
			c-0.71,0.71-2.14,0.71-2.85,0.71h-15.69v5.7h15.69C439.03,533.93,441.89,533.22,443.31,531.79L443.31,531.79z"/>
		<path id="Shape_10_" class="st1" d="M584.48,528.23h-10.69c-0.71,0-2.14,0-2.85-0.71c-0.71-0.71-1.43-0.71-2.14-1.43
			c-0.71-0.71-0.71-1.43-0.71-2.14s0-2.14,0-2.85v-12.83h-5.7v14.97c0,0.71,0,1.43,0,2.85c0,0.71-0.71,1.43-1.43,1.43
			c-0.71,0-0.71,0.71-1.43,0.71h-2.14c-1.43,0-2.14,0-2.85-0.71c-0.71,0-1.43-0.71-2.14-1.43c0-0.71,0-1.43-0.71-2.14
			c0-0.71,0-2.14,0-2.85v-9.98h-5.7v12.12c0,0.71,0,1.43-0.71,2.85c0,0.71-0.71,1.43-1.43,1.43c-0.71,0-1.43,0.71-2.14,0.71h-2.85
			c-1.43,0-2.85,0-3.56-0.71c-0.71,0-1.43-0.71-2.14-1.43c-0.71-0.71-0.71-1.43-0.71-2.14s0-2.14,0-2.85v-9.98h-5.7v12.12
			c0,0.71,0,1.43-0.71,2.85c0,0.71-0.71,1.43-1.43,1.43c-0.71,0.71-1.43,0.71-2.14,0.71h-3.56h-11.41c-1.43,0-2.14,0-3.56,0
			c2.14-1.43,4.28-3.56,5.7-5.7c1.43-2.14,2.14-4.28,2.14-6.42c0-0.71,0-2.14-0.71-2.85c-0.71-0.71-1.43-2.14-2.14-2.85
			c-0.71-0.71-2.14-1.43-3.56-2.14c-1.43-0.71-3.56-0.71-4.99-0.71c-2.14,0-4.28,0.71-6.42,1.43c-2.14,0.71-3.56,2.14-4.99,3.56
			l-0.71,0.71c0,0.71-0.71,0.71-0.71,1.43c0,0.71-0.71,0.71-0.71,1.43s-0.71,0.71-0.71,1.43l8.56,9.27
			c-1.43,0.71-2.85,0.71-4.99,1.43c-1.43,0-3.56,0-4.99,0h-7.84v-2.85c0-2.14,0-4.99-0.71-7.13c-0.71-2.14-1.43-3.56-2.14-5.7
			c-0.71-1.43-2.14-2.85-3.56-3.56c-2.14-0.71-3.56-1.43-5.7-1.43s-3.56,0.71-5.7,1.43c-1.43,0.71-2.85,2.14-4.28,3.56
			c-1.43,1.43-2.14,2.85-2.85,4.28c-0.71,1.43-0.71,3.56-0.71,4.99c0,2.14,0,3.56,0.71,5.7c0.71,1.43,1.43,2.85,2.85,3.56
			c1.43,0.71,2.85,1.43,4.28,2.14c1.43,0.71,3.56,0.71,4.99,0.71h7.84c0,1.43-0.71,2.85-1.43,4.28s-1.43,2.14-2.85,2.85
			s-2.85,1.43-4.28,1.43c-2.14,0-3.56,0-5.7,0h-2.14v5.7h2.85c2.85,0,4.99,0,7.84-0.71c2.14-0.71,4.28-1.43,5.7-2.14
			s2.85-2.85,3.56-4.28c0.71-2.14,1.43-4.28,1.43-6.42h7.84c2.14,0,4.28,0,6.42-0.71c2.14-0.71,4.28-1.43,6.42-2.14
			c1.43,0.71,2.14,1.43,3.56,2.14c1.43,0,2.14,0.71,3.56,0.71h13.55c2.14,0,3.56,0,4.99,0s2.14,0,3.56-0.71
			c0.71,0,1.43-0.71,2.14-1.43s1.43-1.43,1.43-2.14c0,0.71,0,0.71,0.71,1.43c0.71,0.71,0.71,0.71,1.43,1.43
			c0.71,0.71,1.43,0.71,2.85,0.71s2.85,0.71,4.28,0.71c2.14,0,4.28,0,5.7-0.71c1.43-0.71,2.85-2.14,3.56-3.56
			c0,0.71,0.71,0.71,0.71,1.43c0.71,0.71,0.71,0.71,1.43,1.43c0.71,0.71,1.43,0.71,2.85,1.43c1.43,0,2.14,0.71,3.56,0.71h2.14
			c0.71,0,1.43,0,2.14-0.71c0.71,0,1.43-0.71,2.14-1.43c0.71-0.71,1.43-1.43,1.43-2.14c0.71,1.43,1.43,2.14,2.14,2.85
			c1.43,0.71,2.85,1.43,4.28,1.43h16.4v-47.77h-5.7L584.48,528.23z M471.83,528.23h-7.13c-2.14,0-4.28-0.71-5.7-1.43
			c-1.43-1.43-2.14-2.85-2.14-4.99c0-0.71,0-2.14,0.71-2.85c0-0.71,0.71-2.14,1.43-2.85c0.71-0.71,1.43-1.43,2.14-2.14
			c0.71-0.71,2.14-0.71,3.56-0.71c2.14,0,4.28,0.71,5.7,2.85s2.14,4.99,1.43,7.84V528.23z M499.64,524.66l-7.84-8.56
			c0.71-1.43,2.14-2.14,3.56-2.85c1.43-0.71,3.56-1.43,4.99-0.71c1.43,0,3.56,0,4.99,1.43c0.71,0.71,1.43,1.43,1.43,2.85
			c0,1.43-0.71,3.56-2.14,4.99C503.91,522.52,501.78,523.95,499.64,524.66L499.64,524.66z"/>
		<rect id="Rectangle_3_" x="599.45" y="486.16" class="st1" width="7.13" height="47.77"/>
		<path id="Path_70_" class="st1" d="M690,496.85h-4.28c-1.43,0-2.14,0-3.56-1.43c-1.43-0.71-1.43-2.14-1.43-3.56
			c0-0.71,0-2.14,0.71-2.85c0.71-0.71,2.14-1.43,2.85-1.43c1.43,0,2.14,0,3.56,0.71v-3.56h-1.43c-0.71,0-1.43,0-2.14,0
			c-0.71,0-2.14,0-2.85,0.71c-0.71,0-1.43,0.71-2.14,1.43c-0.71,0.71-1.43,1.43-1.43,2.14c-0.71,0.71-0.71,2.14-0.71,3.56
			c0,1.43,0.71,3.56,1.43,4.28h-3.56v3.56h14.26v-3.56H690z"/>
		<path id="Shape_11_" class="st1" d="M764.15,486.16h-5.7v42.07h-19.96l0,0c1.43-1.43,2.14-2.85,3.56-4.28
			c0.71-2.14,1.43-4.28,1.43-6.42c0-1.43,0-2.14-0.71-3.56c-0.71-1.43-0.71-2.14-2.14-3.56c-0.71-1.43-2.14-2.14-2.85-2.85
			c-1.43-0.71-3.56-1.43-4.99-0.71c-3.56,0-7.13,1.43-9.27,4.28c-2.14,3.56-3.56,7.84-3.56,12.12v3.56h-6.42
			c-0.71,0-2.14,0-2.85-0.71s-1.43-0.71-2.14-1.43s-0.71-1.43-0.71-2.14s0-2.14,0-2.85v-12.83h-5.7v14.97c0,0.71,0,1.43,0,2.85
			c0,0.71-0.71,1.43-1.43,1.43s-1.43,0.71-2.14,0.71h-2.85h-4.28c-0.71,0-2.14,0-2.85-0.71c-0.71-0.71-1.43-0.71-2.14-1.43
			c-0.71-0.71-0.71-1.43-0.71-2.14s0-2.14,0-2.85v-12.83h-6.42v14.97c0,0.71,0,1.43-0.71,2.85c0,0.71-0.71,1.43-1.43,1.43
			s-1.43,0.71-2.14,0.71h-1.43h-16.4c-2.14,0-3.56-0.71-3.56-1.43c-0.71-1.43-0.71-2.85-0.71-4.28v-17.11h-10.69
			c-1.43,0-3.56,0-4.99,0.71c-1.43,0.71-2.85,1.43-4.28,2.14c-1.43,1.43-2.14,2.14-3.56,4.28c-0.71,2.14-1.43,4.28-1.43,5.7
			c0,2.14,0.71,4.28,1.43,5.7c0.71,1.43,2.14,2.85,3.56,3.56s2.85,1.43,4.28,1.43c1.43,0,2.14,0.71,3.56,0.71s2.14,0,3.56,0
			c1.43,0,2.14-0.71,3.56-0.71c0,1.43,0.71,2.14,1.43,3.56c0.71,0.71,1.43,1.43,2.14,2.14c0.71,0.71,2.14,0.71,2.85,0.71
			c1.43,0,2.14,0,3.56,0h17.82c2.14,0,4.28,0,6.42-0.71c1.43-0.71,2.85-2.14,3.56-3.56c0,1.43,1.43,2.14,2.14,2.85
			c1.43,0.71,2.85,1.43,4.28,1.43h5.7c2.14,0,4.28,0,6.42-0.71c1.43-0.71,2.85-2.14,3.56-3.56c0,1.43,1.43,2.14,2.14,2.85
			c1.43,0.71,2.85,1.43,4.28,1.43h7.13v0.71c0,2.14,0,4.28,0.71,6.42c0.71,1.43,0.71,3.56,2.14,4.99c0.71,1.43,2.14,2.14,3.56,2.85
			c2.14,0.71,3.56,1.43,5.7,1.43c1.43,0,2.85,0,4.28-0.71s2.14-1.43,3.56-2.14c0.71-0.71,1.43-2.14,2.14-2.85
			c0.71-1.43,0.71-2.14,0.71-3.56c0-0.71,0-2.14-0.71-2.85c-0.71-1.43-1.43-2.14-2.14-3.56l0,0h23.53L764.15,486.16z M647.22,521.1
			c-0.71,0-2.14,0.71-2.85,0.71s-2.14,0-2.85,0c-2.14,0-4.28-0.71-5.7-1.43c-1.43-1.43-2.14-2.85-2.14-4.28
			c0-2.14,0.71-4.28,2.14-4.99c1.43-1.43,3.56-1.43,5.7-1.43h5.7V521.1z M725.65,523.95c0-2.85,0.71-5.7,2.14-8.56
			c0.71-2.14,2.85-2.85,4.99-2.85c1.43,0,2.85,0.71,3.56,1.43c1.43,1.43,1.43,2.85,1.43,4.99c0,0.71,0,2.14-0.71,2.85
			c0,1.43-0.71,2.14-1.43,2.85c-0.71,0.71-1.43,2.14-2.85,2.14c-1.43,0.71-2.85,0.71-4.28,0.71h-2.85V523.95z M736.34,543.91
			c-1.43,0.71-2.85,1.43-4.28,1.43c-1.43,0-2.14,0-3.56-0.71c-0.71-0.71-1.43-1.43-2.14-2.14c-0.71-0.71-0.71-2.14-0.71-2.85
			c0-1.43,0-2.85,0-4.28v-1.43h4.99c1.43,0,2.85,0,4.28,0.71c0.71,0.71,1.43,0.71,2.14,1.43c0.71,0.71,0.71,1.43,0.71,2.14
			s0,1.43,0,1.43C738.48,541.06,737.77,542.48,736.34,543.91L736.34,543.91z"/>
		<rect id="Rectangle_4_" x="773.42" y="486.16" class="st1" width="7.13" height="47.77"/>
		<path id="Path_71_" class="st1" d="M164.54,614.49h34.22v-5.7h-9.98c-2.14,0-4.99-0.71-6.42-2.14c-1.43-1.43-2.14-3.56-2.14-5.7
			s0.71-4.28,2.14-5.7c2.14-1.43,4.28-2.14,6.42-2.14c1.43,0,2.14,0,3.56,0c0.71,0,2.14,0.71,2.85,0.71v-5.7
			c-0.71,0-1.43-0.71-2.14-0.71c-1.43,0-2.85,0-4.28,0c-1.43,0-3.56,0-4.99,0.71c-1.43,0.71-3.56,1.43-4.99,2.14
			c-1.43,1.43-2.85,2.85-3.56,4.28c0,2.14-0.71,4.28-0.71,6.42c0,1.43,0,2.85,0.71,4.28c0.71,1.43,1.43,2.14,2.14,3.56H162.4
			c-5.7,0-10.69-1.43-16.4-2.85v4.99l4.99,1.43c1.43,0.71,3.56,0.71,4.99,1.43c1.43,0.71,2.85,1.43,3.56,2.14s1.43,1.43,1.43,2.85
			c0,0.71-0.71,2.14-1.43,2.14c-1.43,0.71-2.14,1.43-3.56,2.14c-1.43,0.71-3.56,0.71-5.7,1.43c-2.14,0-4.28,0-6.42,0
			c-4.28,0-9.27-0.71-13.55-2.85c-2.85-2.14-4.28-4.99-4.28-8.56v-8.56h-4.28v9.98c0,2.14,0,4.28,0.71,6.42
			c0.71,2.14,2.14,3.56,3.56,4.99c2.14,1.43,4.28,2.85,6.42,3.56c3.56,0.71,7.13,1.43,11.41,1.43c3.56,0,7.13,0,9.98-0.71
			c2.14-0.71,4.28-1.43,6.42-2.14c1.43-0.71,2.85-2.14,3.56-3.56s1.43-2.85,1.43-4.28c0-0.71,0-2.14-0.71-2.85
			C165.25,615.92,165.25,615.21,164.54,614.49L164.54,614.49z"/>
		<path id="Shape_12_" class="st1" d="M345.64,588.11c-2.85,0-5.7,0.71-8.56,2.14c-2.85,1.43-4.99,2.85-7.13,4.99
			c-2.14,2.14-3.56,4.28-5.7,6.42c-1.43,2.14-2.85,4.99-3.56,7.13c-0.71,0-1.43,0-2.85-0.71c-0.71,0-1.43-0.71-1.43-1.43
			c0.71-0.71,0.71-1.43,0.71-2.14s0-2.14,0-2.85v-9.27h-5.7v12.12c0,0.71,0,1.43-0.71,2.85c0,0.71-0.71,1.43-1.43,1.43
			c-0.71,0.71-1.43,0.71-2.14,0.71h-3.56h-7.13v-5.7c0-4.28-1.43-7.84-3.56-11.41c-2.85-2.85-6.42-4.28-9.98-4.28
			s-7.13,0.71-10.69,2.85s-5.7,4.99-7.84,8.56v-32.8h-5.7v42.07h-7.84c-0.71,0-2.14,0-2.85-0.71c-0.71,0-1.43-0.71-2.14-1.43
			c-0.71-0.71-0.71-1.43-0.71-2.14s0-2.14,0-2.85v-12.83h-5.7v15.69c0,0.71,0,1.43-0.71,2.85c0,0.71-0.71,1.43-1.43,1.43
			c-0.71,0-1.43,0.71-2.14,0.71h-2.85H217.3c-2.14,0-3.56-0.71-3.56-1.43c-0.71-1.43-0.71-2.85-0.71-4.28v-37.07h-5.7v38.5
			c0,1.43,0,2.85,0.71,4.28c0.71,1.43,0.71,2.14,2.14,2.85c0.71,0.71,2.14,1.43,2.85,1.43c1.43,0,2.85,0.71,3.56,0.71h17.11
			c2.14,0,4.28,0,6.42-0.71c1.43-0.71,2.85-2.14,3.56-3.56c0,1.43,1.43,2.14,2.14,2.85c1.43,0.71,2.85,1.43,4.28,1.43h52.76
			c2.14,0,3.56,0,4.99,0c1.43,0,2.85,0,3.56-0.71c0.71,0,2.14-0.71,2.85-1.43c0.71-0.71,1.43-1.43,1.43-2.14
			c0,0.71,0.71,0.71,0.71,1.43c0,0.71,0.71,0.71,1.43,1.43c0.71,0.71,1.43,0.71,2.14,0.71c1.43,0,2.14,0.71,3.56,0.71h36.36v-11.41
			c0-4.28-0.71-7.84-3.56-11.41C353.48,588.83,349.91,587.4,345.64,588.11L345.64,588.11z M290.74,608.79h-27.09
			c0.71-2.14,1.43-3.56,2.85-5.7c0.71-2.14,2.14-3.56,3.56-4.99c1.43-1.43,2.85-2.85,4.99-3.56c2.14-0.71,3.56-1.43,5.7-1.43
			c1.43,0,2.85,0,4.28,0.71s2.14,1.43,2.85,2.14s1.43,2.14,1.43,3.56c0,1.43,0.71,2.85,0.71,4.28L290.74,608.79z M354.9,608.79
			h-27.09c0.71-2.14,1.43-3.56,2.85-5.7c1.43-2.14,2.14-3.56,4.28-4.99c1.43-1.43,3.56-2.85,4.99-3.56c2.14-0.71,3.56-1.43,5.7-1.43
			c1.43,0,2.85,0,4.28,0.71s2.14,1.43,2.85,2.14c0.71,0.71,1.43,2.14,1.43,3.56c0,1.43,0.71,2.85,0.71,4.28V608.79z"/>
		<polygon id="Path_72_" class="st1" points="382,576.71 382,608.79 367.02,608.79 367.02,614.49 404.81,614.49 404.81,566.73 
			399.11,566.73 399.11,608.79 387.7,608.79 387.7,576.71 		"/>
		<rect id="Rectangle_5_" x="414.08" y="566.73" class="st1" width="7.13" height="47.77"/>
		<path id="Path_73_" class="st1" d="M454.01,608.08c-1.43-1.43-2.14-2.85-1.43-4.28c0-0.71,0-1.43,0-2.14s0.71-1.43,0.71-1.43
			c0.71-0.71,1.43-0.71,1.43-1.43c0.71,0,1.43-0.71,2.85-0.71c1.43,0,3.56,0,4.99,0.71v-4.99l-2.14-0.71c-1.43,0-2.14,0-3.56,0
			s-2.14,0-3.56,0.71s-2.14,0.71-2.85,2.14c-0.71,0.71-1.43,2.14-2.14,2.85c-0.71,1.43-0.71,2.85-0.71,4.28
			c0,2.14,0.71,4.28,2.14,6.42h-4.99v4.99h19.96v-4.99h-6.42C456.86,609.5,454.72,608.79,454.01,608.08L454.01,608.08z"/>
		<path id="Path_74_" class="st1" d="M497.5,583.12c0,0.71-0.71,0.71-0.71,1.43c0,0.71-0.71,0.71-0.71,1.43s0,1.43-0.71,1.43
			c2.14,1.43,4.99,2.85,7.13,4.28c2.14,1.43,4.28,2.85,6.42,4.28c1.43,1.43,2.85,2.85,4.28,4.28c0.71,1.43,1.43,2.85,1.43,4.28
			c0,1.43-0.71,2.85-1.43,3.56c-1.43,0.71-2.85,0.71-4.28,0.71h-27.09c-2.14,0-3.56-0.71-3.56-1.43c-0.71-1.43-0.71-2.85-0.71-4.28
			v-37.07h-5.7v38.5c0,1.43,0,2.85,0.71,4.28c0.71,1.43,1.43,2.14,2.14,2.85c0.71,0.71,2.14,1.43,2.85,1.43
			c1.43,0,2.85,0.71,4.28,0.71h27.81c2.14,0,3.56,0,5.7-0.71c1.43-0.71,2.14-1.43,3.56-2.14c0.71-0.71,1.43-2.14,1.43-2.85
			s0.71-2.14,0.71-2.85c0-1.43-0.71-2.85-0.71-4.28c-0.71-1.43-1.43-3.56-2.85-4.28c-1.43-2.14-3.56-3.56-5.7-4.99
			c-2.85-2.14-4.99-3.56-7.84-5.7l19.96-8.56v-5.7l-25.67,10.69L497.5,583.12z"/>
		<path id="Path_75_" class="st1" d="M543.13,608.08c-1.43,0.71-2.85,0.71-4.28,0.71h-12.12v5.7h9.98h3.56c0.71,0,2.14,0,2.85-0.71
			c0.71,0,2.14-0.71,2.85-1.43c0.71-0.71,1.43-1.43,2.14-2.85c0.71,1.43,2.14,2.85,3.56,4.28c1.43,0.71,2.85,1.43,4.28,1.43h15.69
			v-47.77h-4.99v42.07h-10.69c-0.71,0-1.43,0-1.43-0.71c-0.71-0.71-1.43-0.71-1.43-1.43c-0.71-0.71-1.43-1.43-2.14-2.85l-2.14-3.56
			l-7.84-13.55l-4.99,3.56l7.13,10.69c0.71,0.71,1.43,2.14,1.43,2.85c0.71,0.71,0.71,1.43,0.71,2.85
			C544.55,607.36,544.55,608.08,543.13,608.08z"/>
		<rect id="Rectangle_6_" x="581.63" y="566.73" class="st1" width="7.13" height="47.77"/>
		<path id="Shape_13_" class="st1" d="M618.7,620.2c0.71-2.85,1.43-5.7,1.43-7.84v-6.42c0-2.14,0-4.28-0.71-6.42
			c0-2.14-0.71-3.56-2.14-5.7c-0.71-1.43-2.14-2.85-4.28-3.56c-2.14-0.71-3.56-1.43-5.7-1.43c-2.14,0-3.56,0.71-5.7,1.43
			c-1.43,0.71-2.85,2.14-4.28,2.85c-1.43,1.43-2.14,2.85-2.85,4.28c-0.71,1.43-0.71,3.56-0.71,4.99c0,2.14,0,3.56,0.71,5.7
			c0.71,1.43,1.43,2.85,2.85,3.56c1.43,0.71,2.14,1.43,3.56,2.14c1.43,0.71,3.56,0.71,4.99,0.71s3.56,0,4.99-0.71
			c1.43,0,2.14-0.71,2.85-1.43v1.43c0,1.43,0,3.56-1.43,4.99c-0.71,1.43-1.43,2.14-2.85,2.85s-2.85,0.71-4.28,1.43
			c-2.14,0-3.56,0-5.7,0h-2.14v5.7h2.85c2.85,0,5.7,0,7.84-0.71s4.28-1.43,6.42-2.14C616.56,623.76,617.99,622.34,618.7,620.2
			L618.7,620.2z M614.43,606.65c-0.71,0.71-2.14,1.43-2.85,1.43c-1.43,0.71-2.85,0.71-4.28,0.71c-2.14,0-3.56-0.71-5.7-1.43
			c-1.43-1.43-2.14-3.56-2.14-5.7c0-0.71,0-2.14,0.71-2.85c0-0.71,0.71-2.14,1.43-2.85c0.71-0.71,1.43-1.43,2.14-2.14
			c1.43-0.71,2.14-0.71,3.56-0.71c2.14,0,4.28,0.71,5.7,2.85c0.71,0.71,0.71,2.14,1.43,3.56c0,1.43,0.71,2.85,0.71,4.28
			L614.43,606.65L614.43,606.65z"/>
		<polygon id="Path_76_" class="st1" points="711.39,540.35 705.69,540.35 705.69,547.48 711.39,543.91 		"/>
		<polygon id="Path_77_" class="st1" points="702.83,540.35 697.13,540.35 697.13,547.48 702.83,543.91 		"/>
		<polygon id="Path_78_" class="st1" points="650.79,489.72 645.08,489.72 645.08,496.85 650.79,494 		"/>
		<polygon id="Path_79_" class="st1" points="641.52,489.72 635.81,489.72 635.81,496.85 641.52,494 		"/>
		<polygon id="Path_80_" class="st1" points="379.86,489.72 374.15,489.72 374.15,496.85 379.86,494 		"/>
		<polygon id="Path_81_" class="st1" points="370.59,489.72 364.89,489.72 364.89,496.85 370.59,494 		"/>
		<polygon id="Path_82_" class="st1" points="416.22,540.35 410.52,540.35 410.52,547.48 416.22,543.91 		"/>
		<polygon id="Path_83_" class="st1" points="407.66,540.35 401.96,540.35 401.96,547.48 407.66,543.91 		"/>
		<polygon id="Path_84_" class="st1" points="272.91,540.35 267.21,540.35 267.21,547.48 272.91,543.91 		"/>
		<polygon id="Path_85_" class="st1" points="264.36,540.35 258.65,540.35 258.65,547.48 264.36,543.91 		"/>
		<polygon id="Path_86_" class="st1" points="290.02,540.35 284.32,540.35 284.32,547.48 290.02,543.91 		"/>
		<polygon id="Path_87_" class="st1" points="540.99,573.86 535.29,573.86 535.29,580.99 540.99,577.42 		"/>
		<polygon id="Path_88_" class="st1" points="245.11,573.86 239.4,573.86 239.4,580.99 245.11,577.42 		"/>
		<polygon id="Path_89_" class="st1" points="156.7,496.85 150.99,496.85 150.99,503.98 156.7,500.42 		"/>
		<polygon id="Path_90_" class="st1" points="147.43,496.85 141.73,496.85 141.73,503.98 147.43,500.42 		"/>
		<polygon id="Path_91_" class="st1" points="150.99,634.46 145.29,634.46 145.29,641.59 150.99,638.02 		"/>
		<polygon id="Path_92_" class="st1" points="142.44,634.46 136.74,634.46 136.74,641.59 142.44,638.02 		"/>
		<polygon id="Path_93_" class="st1" points="222.29,493.29 216.59,493.29 216.59,499.71 222.29,496.85 		"/>
		<path id="Shape_14_" class="st1" d="M341.36,295.08h-62.74v150.44h62.03c52.05,0,86.27-29.94,86.27-75.57
			S393.4,295.08,341.36,295.08z M341.36,412.01h-17.82v-82.7h17.82c11.41-0.71,22.1,3.56,29.94,11.41
			c7.84,7.84,12.12,18.54,10.69,29.94c0.71,10.69-3.56,22.1-10.69,29.94C363.46,408.45,352.77,412.72,341.36,412.01L341.36,412.01z"
			/>
		<polygon id="Path_94_" class="st1" points="545.27,295.08 478.25,295.08 431.9,446.23 479.67,446.23 488.23,416.29 529.58,392.05 
			494.65,392.05 511.76,333.58 529.58,392.05 544.55,445.52 592.32,445.52 		"/>
		<polygon id="Path_95_" class="st1" points="784.82,295.08 717.81,295.08 670.75,446.23 718.52,446.23 727.07,416.29 
			769.14,392.05 733.49,392.05 751.32,333.58 769.14,392.05 784.11,445.52 831.88,445.52 		"/>
		<polygon id="Path_96_" class="st1" points="608.72,321.46 608.72,446.23 654.35,446.23 654.35,295.08 		"/>
		<path id="Path_97_" class="st1" d="M195.2,350.7c-16.4-1.43-29.23-3.56-29.23-13.55c0-7.84,8.56-13.55,21.39-13.55
			c14.97,0,26.38,8.56,25.67,19.96l34.22-19.96c-9.27-19.96-32.08-33.51-61.32-33.51c-37.79,0-64.17,20.68-64.17,51.33
			c0,35.65,29.23,43.49,59.89,47.06c15.69,2.14,29.23,3.56,29.23,14.97c0,9.27-8.56,15.69-22.1,15.69c-16.4,0-28.52-9.27-28.52-22.1
			h-39.21c0,7.13,1.43,14.26,4.28,20.68c9.27,20.68,32.8,34.22,62.74,34.22c39.93,0,67.73-22.1,67.73-54.19
			C255.09,362.1,225.86,354.26,195.2,350.7z"/>
	</g>
</g>
</svg>
